<svg width="20" height="20" viewBox="0 0 20 20" fill="none" xmlns="http://www.w3.org/2000/svg">
<path d="M3.2002 7.00488C4.29591 6.12643 5.68656 5.60059 7.2002 5.60059C10.7346 5.60068 13.5994 8.46564 13.5996 12C13.5996 15.5346 10.7347 18.4003 7.2002 18.4004C5.68636 18.4004 4.29598 17.8738 3.2002 16.9951V18.4004H0V1.60059H3.2002V7.00488ZM7.2002 8.75391C5.40736 8.75391 3.95337 10.2072 3.95312 12C3.95312 13.793 5.40721 15.2471 7.2002 15.2471C8.9931 15.247 10.4463 13.7929 10.4463 12C10.446 10.2073 8.99295 8.754 7.2002 8.75391Z" fill="#1AC05F"/>
<rect x="17.6" width="1.6" height="20" fill="#1AC05F"/>
</svg>
