<svg width="144" height="144" viewBox="0 0 144 144" fill="none" xmlns="http://www.w3.org/2000/svg">
<rect width="144" height="144" rx="45" fill="white"/>
<path d="M53.1003 29C55.055 29 56.6396 30.5846 56.6396 32.5393V33.2471H39.5096V40.0425H56.6396V40.7503C56.6396 42.705 55.055 44.2896 53.1003 44.2896H38.8018C36.8471 44.2896 35.2625 42.705 35.2625 40.7503V32.5393C35.2625 30.5846 36.8471 29 38.8018 29H53.1003Z" fill="black"/>
<path d="M43.7568 51.0859L43.7568 44.9984L44.4646 44.9984C46.4193 44.9984 48.0039 46.583 48.0039 48.5376L48.0039 51.7938C48.0039 53.7484 46.4193 55.333 44.4646 55.333L24.7864 55.333C22.8317 55.333 21.2471 53.7484 21.2471 51.7938L21.2471 51.0859L43.7568 51.0859Z" fill="black"/>
<path d="M71.7877 35.2285L71.7877 29.141L72.4955 29.141C74.4502 29.141 76.0348 30.7256 76.0348 32.6802L76.0348 35.9363C76.0348 37.891 74.4502 39.4756 72.4955 39.4756L64.9923 39.4756C63.0376 39.4756 61.4531 37.891 61.4531 35.9363L61.4531 35.2285L71.7877 35.2285Z" fill="black"/>
<path d="M27.3346 74.3017L27.3346 68.2142L28.0425 68.2142C29.9971 68.2142 31.5817 69.7988 31.5817 71.7535L31.5817 75.0096C31.5817 76.9643 29.9971 78.5488 28.0425 78.5488L20.5393 78.5488C18.5846 78.5488 17 76.9643 17 75.0096L17 74.3017L27.3346 74.3017Z" fill="black"/>
<path d="M46.5881 91.0068L46.5881 79.5396L45.8803 79.5396C43.9256 79.5396 42.341 81.1242 42.341 83.0789L42.341 91.7147C42.341 93.6693 43.9256 95.2539 45.8803 95.2539L46.305 95.2539C48.2597 95.2539 49.8442 93.6693 49.8442 91.7147L49.8442 91.0068L46.5881 91.0068Z" fill="black"/>
<path d="M87.9266 91.5732L87.9266 75.0095L87.2188 75.0095C85.2641 75.0095 83.6795 76.5941 83.6795 78.5488L83.6795 92.2811C83.6795 94.2357 85.2641 95.8203 87.2188 95.8203L90.758 95.8203C92.7127 95.8203 94.2973 94.2357 94.2973 92.2811L94.2973 91.5732L87.9266 91.5732Z" fill="black"/>
<path d="M113.409 74.0186L113.409 87.1846L114.117 87.1846C116.072 87.1846 117.656 85.6 117.656 83.6453L117.656 73.3107C117.656 71.3561 116.072 69.7715 114.117 69.7715L102.367 69.7715C100.412 69.7715 98.8275 71.3561 98.8275 73.3107L98.8275 74.0186L113.409 74.0186Z" fill="black"/>
<path d="M126.292 89.875L126.292 89.1672C126.292 87.2125 124.708 85.6279 122.753 85.6279L102.367 85.6279C100.412 85.6279 98.8275 87.2125 98.8275 89.1672L98.8275 89.875L126.292 89.875Z" fill="black"/>
<path d="M108.313 102.474L109.021 102.474C110.975 102.474 112.56 100.89 112.56 98.9349L112.56 90.7238C112.56 88.7691 110.975 87.1846 109.021 87.1846L108.313 87.1846L108.313 102.474Z" fill="black"/>
<path d="M122.753 105.023L127 105.023L127 68.0734C127 66.1188 125.415 64.5342 123.461 64.5342L122.753 64.5342L122.753 105.023Z" fill="black"/>
<path d="M113.409 82.2305L113.409 89.4506L117.656 89.4506L117.656 81.2395C117.656 79.4412 116.199 77.9834 114.4 77.9834L107.18 77.9834C105.382 77.9834 103.924 79.4412 103.924 81.2395L103.924 82.2305L113.409 82.2305Z" fill="black"/>
<path d="M31.5817 103.749L31.5817 100.493L30.8739 100.493C28.9192 100.493 27.3346 102.077 27.3346 104.032L27.3346 104.457C27.3346 106.412 28.9192 107.996 30.8739 107.996L49.4195 107.996C51.3742 107.996 52.9588 106.412 52.9588 104.457L52.9588 103.749L31.5817 103.749Z" fill="black"/>
<path d="M60.3204 91.5732L60.3204 92.2811C60.3204 94.2357 61.905 95.8203 63.8597 95.8203L74.9022 95.8203C76.8568 95.8203 78.4414 94.2357 78.4414 92.2811L78.4414 91.5732L60.3204 91.5732Z" fill="black"/>
<path d="M89.9086 50.5182H95.9961V51.2261C95.9961 53.1807 94.4115 54.7653 92.4569 54.7653H89.2008C87.2461 54.7653 85.6615 53.1807 85.6615 51.2261V43.7228C85.6615 41.7682 87.2461 40.1836 89.2008 40.1836H89.9086V50.5182Z" fill="black"/>
<path d="M64.426 81.9475H70.5135V82.6553C70.5135 84.61 68.9289 86.1946 66.9743 86.1946H63.7181C61.7635 86.1946 60.1789 84.61 60.1789 82.6553V68.923C60.1789 66.9684 61.7635 65.3838 63.7181 65.3838H64.426V81.9475Z" fill="black"/>
<path d="M95.0052 54.765H88.9176V54.0571C88.9176 52.1025 90.5022 50.5179 92.4569 50.5179H95.713C97.6677 50.5179 99.2523 52.1025 99.2523 54.0571V61.5604C99.2523 63.515 97.6677 65.0996 95.713 65.0996H95.0052V54.765Z" fill="black"/>
<path d="M74.3359 86.1955H63.435V85.4876C63.435 83.5329 65.0196 81.9484 66.9743 81.9484H75.0438C76.9984 81.9484 78.583 83.5329 78.583 85.4876V92.1414C78.583 94.0961 76.9984 95.6807 75.0438 95.6807H74.3359V86.1955Z" fill="black"/>
<path d="M95.0052 50.5186H88.9176V51.2265C88.9176 53.1811 90.5022 54.7657 92.4569 54.7657H99.2523V49.9523C99.2523 47.9977 97.6677 46.4131 95.713 46.4131H95.0052V50.5186Z" fill="black"/>
<path d="M74.3359 81.9467H63.435V82.6545C63.435 84.6092 65.0196 86.1938 66.9743 86.1938H78.583V78.549C78.583 76.5943 76.9984 75.0098 75.0438 75.0098H74.3359V81.9467Z" fill="black"/>
<path d="M89.4471 55.247H95.5346V54.5392C95.5346 52.5845 93.9501 50.9999 91.9954 50.9999H85.2V55.8133C85.2 57.768 86.7846 59.3525 88.7393 59.3525H89.4471V55.247Z" fill="black"/>
<path d="M64.426 86.1955H70.5135V85.4876C70.5135 83.5329 68.9289 81.9484 66.9743 81.9484H60.1789V92.1414C60.1789 94.0961 61.7635 95.6807 63.7181 95.6807H64.426V86.1955Z" fill="black"/>
<path d="M50.269 65.3838C50.269 62.96 48.3041 60.9951 45.8803 60.9951C43.4565 60.9951 41.4917 62.96 41.4917 65.3838C41.4917 67.8076 43.4565 69.7725 45.8803 69.7725C48.3041 69.7725 50.269 67.8076 50.269 65.3838ZM54.5161 65.3838C54.5161 70.1532 50.6498 74.0196 45.8803 74.0196C41.1109 74.0196 37.2446 70.1532 37.2446 65.3838C37.2446 60.6144 41.1109 56.748 45.8803 56.748C50.6498 56.748 54.5161 60.6144 54.5161 65.3838Z" fill="#FDB05C"/>
<path d="M78.2998 49.8116C78.2998 47.3878 76.335 45.4229 73.9112 45.4229C71.4874 45.4229 69.5225 47.3878 69.5225 49.8116C69.5225 52.2353 71.4874 54.2002 73.9112 54.2002C76.335 54.2002 78.2998 52.2353 78.2998 49.8116ZM82.5469 49.8116C82.5469 54.581 78.6806 58.4473 73.9112 58.4473C69.1418 58.4473 65.2754 54.581 65.2754 49.8116C65.2754 45.0421 69.1418 41.1758 73.9112 41.1758C78.6806 41.1758 82.5469 45.0421 82.5469 49.8116Z" fill="#4AC1AB"/>
<path d="M34.9794 89.167C34.9794 86.7432 33.0145 84.7784 30.5907 84.7784C28.1669 84.7784 26.2021 86.7432 26.2021 89.167C26.2021 91.5908 28.1669 93.5557 30.5907 93.5557C33.0145 93.5557 34.9794 91.5908 34.9794 89.167ZM39.2265 89.167C39.2265 93.9364 35.3601 97.8028 30.5907 97.8028C25.8213 97.8028 21.955 93.9364 21.955 89.167C21.955 84.3976 25.8213 80.5312 30.5907 80.5312C35.3601 80.5312 39.2265 84.3976 39.2265 89.167Z" fill="#F57B8A"/>
<path d="M112.843 104.882C112.843 105.533 112.971 106.177 113.22 106.778C113.469 107.379 113.834 107.925 114.294 108.385C114.754 108.846 115.301 109.211 115.902 109.46C116.503 109.709 117.147 109.837 117.798 109.837C118.449 109.837 119.093 109.709 119.694 109.46C120.295 109.211 120.841 108.846 121.302 108.385C121.762 107.925 122.127 107.379 122.376 106.778C122.625 106.177 122.753 105.533 122.753 104.882H127C127 106.09 126.762 107.287 126.3 108.403C125.837 109.52 125.159 110.534 124.305 111.389C123.45 112.243 122.436 112.921 121.319 113.384C120.203 113.846 119.006 114.084 117.798 114.084C116.59 114.084 115.393 113.846 114.276 113.384C113.16 112.921 112.145 112.243 111.291 111.389C110.436 110.534 109.759 109.52 109.296 108.403C108.834 107.287 108.596 106.09 108.596 104.882H112.843Z" fill="#4C9BC6"/>
<path d="M98.6859 104.882C98.6859 105.533 98.814 106.177 99.063 106.778C99.312 107.379 99.6772 107.925 100.137 108.385C100.597 108.846 101.143 109.211 101.745 109.46C102.346 109.709 102.99 109.837 103.641 109.837C104.292 109.837 104.936 109.709 105.537 109.46C106.138 109.211 106.684 108.846 107.144 108.385C107.605 107.925 107.97 107.379 108.219 106.778C108.468 106.177 108.596 105.533 108.596 104.882H112.843C112.843 106.09 112.605 107.287 112.143 108.403C111.68 109.52 111.002 110.534 110.148 111.389C109.293 112.243 108.279 112.921 107.162 113.384C106.046 113.846 104.849 114.084 103.641 114.084C102.432 114.084 101.236 113.846 100.119 113.384C99.0029 112.921 97.9883 112.243 97.1339 111.389C96.2794 110.534 95.6016 109.52 95.1392 108.403C94.6767 107.287 94.4388 106.09 94.4388 104.882H98.6859Z" fill="#4C9BC6"/>
<path d="M84.529 104.882C84.529 105.533 84.6571 106.177 84.9061 106.778C85.1551 107.379 85.5202 107.925 85.9803 108.385C86.4404 108.846 86.9865 109.211 87.5877 109.46C88.1888 109.709 88.8332 109.837 89.4839 109.837C90.1346 109.837 90.779 109.709 91.3802 109.46C91.9813 109.211 92.5274 108.846 92.9875 108.385C93.4476 107.925 93.8127 107.379 94.0617 106.778C94.3107 106.177 94.4389 105.533 94.4389 104.882H98.686C98.686 106.09 98.448 107.287 97.9856 108.403C97.5231 109.52 96.8454 110.534 95.9909 111.389C95.1364 112.243 94.1219 112.921 93.0055 113.384C91.889 113.846 90.6923 114.084 89.4839 114.084C88.2755 114.084 87.0788 113.846 85.9624 113.384C84.8459 112.921 83.8314 112.243 82.9769 111.389C82.1225 110.534 81.4447 109.52 80.9822 108.403C80.5198 107.287 80.2819 106.09 80.2819 104.882H84.529Z" fill="#4C9BC6"/>
<path d="M70.3719 104.882C70.3719 105.533 70.5001 106.177 70.7491 106.778C70.9981 107.379 71.3632 107.925 71.8233 108.385C72.2834 108.846 72.8295 109.211 73.4306 109.46C74.0318 109.709 74.6762 109.837 75.3269 109.837C75.9776 109.837 76.622 109.709 77.2231 109.46C77.8243 109.211 78.3704 108.846 78.8305 108.385C79.2906 107.925 79.6557 107.379 79.9047 106.778C80.1537 106.177 80.2818 105.533 80.2818 104.882H84.5289C84.5289 106.09 84.291 107.287 83.8285 108.403C83.3661 109.52 82.6883 110.534 81.8338 111.389C80.9794 112.243 79.9649 112.921 78.8484 113.384C77.732 113.846 76.5353 114.084 75.3269 114.084C74.1184 114.084 72.9218 113.846 71.8053 113.384C70.6889 112.921 69.6744 112.243 68.8199 111.389C67.9654 110.534 67.2876 109.52 66.8252 108.403C66.3628 107.287 66.1248 106.09 66.1248 104.882H70.3719Z" fill="#4C9BC6"/>
</svg>
