<svg width="33" height="30" viewBox="0 0 33 30" fill="none" xmlns="http://www.w3.org/2000/svg">
<path d="M18.0556 0.637053C17.1965 -0.212349 15.8035 -0.212353 14.9444 0.637053L0.322183 15.0933C-0.107394 15.518 -0.107394 16.2066 0.322183 16.6313C0.751759 17.056 1.44824 17.056 1.87782 16.6313L16.5 2.17503L31.1222 16.6313C31.5518 17.056 32.2482 17.056 32.6778 16.6313C33.1074 16.2066 33.1074 15.518 32.6778 15.0933L27.5 9.97424V2.81209C27.5 2.21147 27.0075 1.72457 26.4 1.72457H24.2C23.5925 1.72457 23.1 2.21147 23.1 2.81209V5.62417L18.0556 0.637053Z" fill="white"/>
<path d="M16.5 4.53665L29.7 17.5869V26.7374C29.7 28.5393 28.2225 30 26.4 30H6.6C4.77746 30 3.3 28.5393 3.3 26.7374V17.5869L16.5 4.53665Z" fill="white"/>
</svg>
