<svg width="20" height="20" viewBox="0 0 20 20" fill="none" xmlns="http://www.w3.org/2000/svg">
<path d="M11.5358 14.3877L8.81776 17.1058C8.0286 17.8738 6.96877 18.3003 5.86757 18.2929C4.76637 18.2856 3.71235 17.8449 2.93356 17.0663C2.15477 16.2878 1.71383 15.2339 1.70614 14.1327C1.69845 13.0315 2.12463 11.9715 2.89247 11.1822L5.61055 8.4616C5.7668 8.30524 5.85453 8.09323 5.85445 7.87219C5.85437 7.65115 5.76649 7.4392 5.61014 7.28296C5.45378 7.12672 5.24177 7.03898 5.02073 7.03906C4.79969 7.03914 4.58774 7.12702 4.4315 7.28337L1.71425 10.0039C0.616243 11.1025 -0.000390491 12.5922 1.85525e-07 14.1454C0.000390862 15.6986 0.617774 17.1881 1.71633 18.2861C2.81489 19.3841 4.30463 20.0007 5.85784 20.0003C7.41104 19.9999 8.90047 19.3826 9.99848 18.284L12.7166 15.5659C12.8683 15.4088 12.9523 15.1983 12.9504 14.9798C12.9485 14.7613 12.8609 14.5523 12.7064 14.3979C12.5519 14.2434 12.3429 14.1557 12.1244 14.1538C11.906 14.1519 11.6955 14.2359 11.5383 14.3877H11.5358Z" fill="#F57B8A"/>
<path d="M18.2842 1.71736C17.742 1.17142 17.0968 0.738518 16.3861 0.443726C15.6754 0.148935 14.9132 -0.0018802 14.1438 2.05321e-05C13.3747 -0.00202239 12.6129 0.148405 11.9024 0.442606C11.1918 0.736806 10.5467 1.16894 10.0042 1.71403L7.28191 4.43294C7.12556 4.58919 7.03768 4.80114 7.0376 5.02218C7.03752 5.24322 7.12525 5.45523 7.28149 5.61158C7.43774 5.76794 7.64969 5.85582 7.87073 5.8559C8.09177 5.85597 8.30378 5.76824 8.46013 5.612L11.1807 2.89392C11.5686 2.50366 12.0301 2.19424 12.5385 1.98355C13.0468 1.77287 13.5919 1.66512 14.1421 1.66653C14.9706 1.66681 15.7804 1.9127 16.4691 2.37313C17.1579 2.83356 17.6947 3.48786 18.0116 4.25331C18.3286 5.01876 18.4115 5.86099 18.2498 6.67355C18.0882 7.4861 17.6893 8.23249 17.1035 8.81837L14.3854 11.5365C14.2291 11.6928 14.1412 11.9049 14.1412 12.126C14.1412 12.3471 14.2291 12.5592 14.3854 12.7155C14.5418 12.8719 14.7538 12.9597 14.9749 12.9597C15.1961 12.9597 15.4081 12.8719 15.5645 12.7155L18.2826 9.99909C19.3792 8.90011 19.9952 7.41109 19.9955 5.85857C19.9958 4.30606 19.3804 2.81679 18.2842 1.71736Z" fill="#F57B8A"/>
<path d="M11.9092 6.91066L6.90966 11.9102C6.83007 11.9871 6.76659 12.079 6.72292 12.1807C6.67925 12.2823 6.65627 12.3917 6.6553 12.5023C6.65434 12.6129 6.67543 12.7227 6.71732 12.8251C6.75922 12.9275 6.82109 13.0205 6.89933 13.0987C6.97757 13.177 7.0706 13.2388 7.173 13.2807C7.27541 13.3226 7.38513 13.3437 7.49577 13.3428C7.60641 13.3418 7.71575 13.3188 7.81741 13.2751C7.91907 13.2315 8.01102 13.168 8.08788 13.0884L13.0874 8.08888C13.2392 7.93173 13.3232 7.72125 13.3213 7.50277C13.3194 7.2843 13.2318 7.0753 13.0773 6.92081C12.9228 6.76632 12.7138 6.67869 12.4953 6.67679C12.2768 6.67489 12.0663 6.75888 11.9092 6.91066Z" fill="#F57B8A"/>
</svg>
