<svg width="100" height="78" viewBox="0 0 100 78" fill="none" xmlns="http://www.w3.org/2000/svg">
<path d="M32.8185 0C34.5955 0 36.036 1.44053 36.036 3.2175V3.861H20.4633V10.0386H36.036V10.6821C36.036 12.4591 34.5955 13.8996 32.8185 13.8996H19.8198C18.0428 13.8996 16.6023 12.4591 16.6023 10.6821V3.2175C16.6023 1.44053 18.0428 0 19.8198 0H32.8185Z" fill="black"/>
<path d="M24.3243 20.0775L24.3243 14.5434L24.9678 14.5434C26.7448 14.5434 28.1853 15.9839 28.1853 17.7609L28.1853 20.721C28.1853 22.498 26.7448 23.9385 24.9678 23.9385L7.07853 23.9385C5.30155 23.9385 3.86102 22.498 3.86102 20.721L3.86102 20.0775L24.3243 20.0775Z" fill="black"/>
<path d="M49.807 5.66243L49.807 0.128328L50.4505 0.128328C52.2275 0.128328 53.668 1.56885 53.668 3.34583L53.668 6.30593C53.668 8.08291 52.2275 9.52344 50.4505 9.52344L43.6294 9.52344C41.8524 9.52344 40.4119 8.08291 40.4119 6.30593L40.4119 5.66243L49.807 5.66243Z" fill="black"/>
<path d="M9.39511 41.1839L9.39511 35.6498L10.0386 35.6498C11.8156 35.6498 13.2561 37.0903 13.2561 38.8673L13.2561 41.8274C13.2561 43.6044 11.8156 45.0449 10.0386 45.0449L3.2175 45.0449C1.44053 45.0449 -6.29674e-08 43.6044 -1.40642e-07 41.8274L-1.6877e-07 41.1839L9.39511 41.1839Z" fill="black"/>
<path d="M26.8983 56.3704L26.8983 45.9457L26.2548 45.9457C24.4778 45.9457 23.0373 47.3863 23.0373 49.1632L23.0373 57.0139C23.0373 58.7909 24.4778 60.2314 26.2548 60.2314L26.6409 60.2314C28.4179 60.2314 29.8584 58.7909 29.8584 57.0139L29.8584 56.3704L26.8983 56.3704Z" fill="black"/>
<path d="M64.4788 56.8851L64.4788 41.8272L63.8353 41.8272C62.0583 41.8272 60.6178 43.2677 60.6178 45.0447L60.6178 57.5286C60.6178 59.3056 62.0583 60.7461 63.8353 60.7461L67.0528 60.7461C68.8297 60.7461 70.2703 59.3056 70.2703 57.5286L70.2703 56.8851L64.4788 56.8851Z" fill="black"/>
<path d="M87.6448 40.9264L87.6448 52.8955L88.2883 52.8955C90.0653 52.8955 91.5058 51.455 91.5058 49.678L91.5058 40.2829C91.5058 38.506 90.0653 37.0654 88.2883 37.0654L77.6062 37.0654C75.8292 37.0654 74.3887 38.506 74.3887 40.2829L74.3887 40.9264L87.6448 40.9264Z" fill="black"/>
<path d="M99.3565 55.3415L99.3565 54.698C99.3565 52.921 97.916 51.4805 96.139 51.4805L77.6062 51.4805C75.8292 51.4805 74.3887 52.921 74.3887 54.698L74.3887 55.3415L99.3565 55.3415Z" fill="black"/>
<path d="M83.0116 66.7951L83.6551 66.7951C85.432 66.7951 86.8726 65.3546 86.8726 63.5776L86.8726 56.113C86.8726 54.336 85.432 52.8955 83.6551 52.8955L83.0116 52.8955L83.0116 66.7951Z" fill="black"/>
<path d="M96.139 69.1119L100 69.1119L100 35.5212C100 33.7442 98.5595 32.3037 96.7825 32.3037L96.139 32.3037L96.139 69.1119Z" fill="black"/>
<path d="M87.6448 48.3913L87.6448 54.955L91.5058 54.955L91.5058 47.4904C91.5058 45.8556 90.1805 44.5303 88.5457 44.5303L81.982 44.5303C80.3471 44.5303 79.0219 45.8556 79.0219 47.4904L79.0219 48.3913L87.6448 48.3913Z" fill="black"/>
<path d="M13.2561 67.9534L13.2561 64.9933L12.6126 64.9933C10.8356 64.9933 9.3951 66.4339 9.39509 68.2108L9.39509 68.5969C9.39509 70.3739 10.8356 71.8145 12.6126 71.8145L29.4723 71.8145C31.2493 71.8145 32.6898 70.3739 32.6898 68.5969L32.6898 67.9534L13.2561 67.9534Z" fill="black"/>
<path d="M39.3822 56.8851L39.3822 57.5286C39.3822 59.3056 40.8227 60.7461 42.5997 60.7461L52.6383 60.7461C54.4153 60.7461 55.8558 59.3056 55.8558 57.5286L55.8558 56.8851L39.3822 56.8851Z" fill="black"/>
<path d="M66.2806 19.5621H71.8147V20.2056C71.8147 21.9826 70.3741 23.4231 68.5972 23.4231H65.6371C63.8601 23.4231 62.4196 21.9826 62.4196 20.2056V13.3845C62.4196 11.6075 63.8601 10.167 65.6371 10.167H66.2806V19.5621Z" fill="black"/>
<path d="M43.1145 48.1341H48.6486V48.7776C48.6486 50.5546 47.2081 51.9951 45.4311 51.9951H42.471C40.6941 51.9951 39.2535 50.5546 39.2535 48.7776V36.2937C39.2535 34.5167 40.6941 33.0762 42.471 33.0762H43.1145V48.1341Z" fill="black"/>
<path d="M70.9138 23.4233H65.3797V22.7797C65.3797 21.0028 66.8202 19.5622 68.5972 19.5622H71.5573C73.3343 19.5622 74.7748 21.0028 74.7748 22.7797V29.6009C74.7748 31.3778 73.3343 32.8184 71.5573 32.8184H70.9138V23.4233Z" fill="black"/>
<path d="M52.1236 51.9953H42.2136V51.3518C42.2136 49.5748 43.6542 48.1343 45.4311 48.1343H52.7671C54.544 48.1343 55.9846 49.5748 55.9846 51.3518V57.4007C55.9846 59.1776 54.544 60.6182 52.7671 60.6182H52.1236V51.9953Z" fill="black"/>
<path d="M70.9138 19.5624H65.3797V20.2059C65.3797 21.9829 66.8202 23.4234 68.5972 23.4234H74.7748V19.0476C74.7748 17.2706 73.3343 15.8301 71.5573 15.8301H70.9138V19.5624Z" fill="black"/>
<path d="M52.1236 48.1335H42.2136V48.777C42.2136 50.5539 43.6542 51.9945 45.4311 51.9945H55.9846L55.9846 45.0447C55.9846 43.2677 54.544 41.8271 52.7671 41.8271H52.1236V48.1335Z" fill="black"/>
<path d="M66.2806 23.423H71.8147V22.7795C71.8147 21.0025 70.3741 19.562 68.5972 19.562H62.4196V23.9378C62.4196 25.7147 63.8601 27.1553 65.6371 27.1553H66.2806V23.423Z" fill="black"/>
<path d="M43.1145 51.9953H48.6486V51.3518C48.6486 49.5748 47.2081 48.1343 45.4311 48.1343H39.2535V57.4007C39.2535 59.1776 40.6941 60.6182 42.471 60.6182H43.1145V51.9953Z" fill="black"/>
<path d="M30.2445 33.0763C30.2445 30.8728 28.4583 29.0866 26.2548 29.0866C24.0514 29.0866 22.2651 30.8728 22.2651 33.0763C22.2651 35.2797 24.0514 37.066 26.2548 37.066C28.4583 37.066 30.2445 35.2797 30.2445 33.0763ZM34.1055 33.0763C34.1055 37.4121 30.5906 40.927 26.2548 40.927C21.919 40.927 18.4041 37.4121 18.4041 33.0763C18.4041 28.7405 21.919 25.2256 26.2548 25.2256C30.5906 25.2256 34.1055 28.7405 34.1055 33.0763Z" fill="#FDB05C"/>
<path d="M55.7271 18.9191C55.7271 16.7156 53.9409 14.9294 51.7374 14.9294C49.534 14.9294 47.7477 16.7156 47.7477 18.9191C47.7477 21.1225 49.534 22.9088 51.7374 22.9088C53.9409 22.9088 55.7271 21.1225 55.7271 18.9191ZM59.5881 18.9191C59.5881 23.2549 56.0733 26.7698 51.7374 26.7698C47.4016 26.7698 43.8867 23.2549 43.8867 18.9191C43.8867 14.5832 47.4016 11.0684 51.7374 11.0684C56.0733 11.0684 59.5881 14.5832 59.5881 18.9191Z" fill="#4AC1AB"/>
<path d="M16.3449 54.6974C16.3449 52.4939 14.5587 50.7077 12.3552 50.7077C10.1518 50.7077 8.36552 52.4939 8.36552 54.6974C8.36552 56.9008 10.1518 58.6871 12.3552 58.6871C14.5587 58.6871 16.3449 56.9008 16.3449 54.6974ZM20.2059 54.6974C20.2059 59.0332 16.6911 62.5481 12.3552 62.5481C8.0194 62.5481 4.50452 59.0332 4.50452 54.6974C4.50452 50.3616 8.0194 46.8467 12.3552 46.8467C16.6911 46.8467 20.2059 50.3616 20.2059 54.6974Z" fill="#F57B8A"/>
<path d="M87.13 68.9834C87.13 69.5749 87.2465 70.1608 87.4729 70.7073C87.6992 71.2538 88.0311 71.7502 88.4494 72.1685C88.8677 72.5867 89.3641 72.9187 89.9106 73.145C90.4571 73.3714 91.0429 73.4879 91.6345 73.4879C92.226 73.4879 92.8119 73.3714 93.3584 73.145C93.9049 72.9187 94.4013 72.5867 94.8196 72.1685C95.2378 71.7502 95.5698 71.2538 95.7961 70.7073C96.0225 70.1608 96.139 69.5749 96.139 68.9834H100C100 70.082 99.7837 71.1699 99.3633 72.1848C98.9429 73.1997 98.3267 74.122 97.5499 74.8988C96.7731 75.6756 95.8508 76.2918 94.8359 76.7122C93.821 77.1326 92.7331 77.3489 91.6345 77.3489C90.5359 77.3489 89.448 77.1326 88.4331 76.7122C87.4181 76.2918 86.4959 75.6756 85.7191 74.8988C84.9423 74.122 84.3261 73.1997 83.9057 72.1848C83.4853 71.1699 83.269 70.082 83.269 68.9834H87.13Z" fill="#4C9BC6"/>
<path d="M74.26 68.9834C74.26 69.5749 74.3765 70.1608 74.6029 70.7073C74.8292 71.2538 75.1612 71.7502 75.5794 72.1685C75.9977 72.5867 76.4941 72.9187 77.0406 73.145C77.5871 73.3714 78.173 73.4879 78.7645 73.4879C79.356 73.4879 79.9419 73.3714 80.4884 73.145C81.0349 72.9187 81.5313 72.5867 81.9496 72.1685C82.3678 71.7502 82.6998 71.2538 82.9261 70.7073C83.1525 70.1608 83.269 69.5749 83.269 68.9834H87.13C87.13 70.082 86.9137 71.1699 86.4933 72.1848C86.0729 73.1997 85.4567 74.122 84.6799 74.8988C83.9031 75.6756 82.9808 76.2918 81.9659 76.7122C80.951 77.1326 79.8631 77.3489 78.7645 77.3489C77.6659 77.3489 76.578 77.1326 75.5631 76.7122C74.5481 76.2918 73.6259 75.6756 72.8491 74.8988C72.0723 74.122 71.4561 73.1997 71.0357 72.1848C70.6153 71.1699 70.399 70.082 70.399 68.9834H74.26Z" fill="#4C9BC6"/>
<path d="M61.3899 68.9834C61.3899 69.5749 61.5064 70.1608 61.7328 70.7073C61.9592 71.2538 62.2911 71.7502 62.7094 72.1685C63.1276 72.5867 63.6241 72.9187 64.1706 73.145C64.7171 73.3714 65.3029 73.4879 65.8944 73.4879C66.486 73.4879 67.0718 73.3714 67.6183 73.145C68.1648 72.9187 68.6612 72.5867 69.0795 72.1685C69.4978 71.7502 69.8297 71.2538 70.0561 70.7073C70.2824 70.1608 70.3989 69.5749 70.3989 68.9834H74.2599C74.2599 70.082 74.0436 71.1699 73.6232 72.1848C73.2028 73.1997 72.5867 74.122 71.8099 74.8988C71.0331 75.6756 70.1108 76.2918 69.0959 76.7122C68.0809 77.1326 66.993 77.3489 65.8944 77.3489C64.7959 77.3489 63.708 77.1326 62.693 76.7122C61.6781 76.2918 60.7558 75.6756 59.979 74.8988C59.2022 74.122 58.5861 73.1997 58.1656 72.1848C57.7452 71.1699 57.5289 70.082 57.5289 68.9834H61.3899Z" fill="#4C9BC6"/>
<path d="M48.5199 68.9834C48.5199 69.5749 48.6364 70.1608 48.8628 70.7073C49.0892 71.2538 49.4211 71.7502 49.8394 72.1685C50.2576 72.5867 50.7541 72.9187 51.3006 73.145C51.8471 73.3714 52.4329 73.4879 53.0244 73.4879C53.616 73.4879 54.2018 73.3714 54.7483 73.145C55.2948 72.9187 55.7913 72.5867 56.2095 72.1685C56.6278 71.7502 56.9597 71.2538 57.1861 70.7073C57.4125 70.1608 57.5289 69.5749 57.5289 68.9834H61.39C61.39 70.082 61.1736 71.1699 60.7532 72.1848C60.3328 73.1997 59.7167 74.122 58.9399 74.8988C58.1631 75.6756 57.2408 76.2918 56.2259 76.7122C55.2109 77.1326 54.123 77.3489 53.0244 77.3489C51.9259 77.3489 50.838 77.1326 49.823 76.7122C48.8081 76.2918 47.8858 75.6756 47.109 74.8988C46.3322 74.122 45.7161 73.1997 45.2956 72.1848C44.8752 71.1699 44.6589 70.082 44.6589 68.9834H48.5199Z" fill="#4C9BC6"/>
</svg>
